<?xml version="1.0" encoding="UTF-8"?>
<svg width="707px" height="478px" viewBox="0 0 707 478" version="1.1" xmlns="http://www.w3.org/2000/svg" xmlns:xlink="http://www.w3.org/1999/xlink">
    <!-- Generator: Sketch 64 (93537) - https://sketch.com -->
    <title>easy adoption</title>
    <desc>Created with Sketch.</desc>
    <defs>
        <polygon id="path-1" points="0 0.169737951 511.950147 0.169737951 511.950147 333.581796 0 333.581796"></polygon>
    </defs>
    <g id="home" stroke="none" stroke-width="1" fill="none" fill-rule="evenodd">
        <g id="Tempo-homepage" transform="translate(-591.000000, -3500.000000)">
            <g id="easy-adoption" transform="translate(591.000000, 3501.000000)">
                <g id="BG-elements">
                    <g id="Bean" transform="translate(0.000000, 142.956665)">
                        <mask id="mask-2" fill="white">
                            <use xlink:href="#path-1"></use>
                        </mask>
                        <g id="Clip-2"></g>
                        <path d="M16.2845649,150.877723 C48.40065,255.309448 140.30131,333.036492 257.317139,333.582515 C374.329203,334.121834 511.442065,243.338708 511.950147,134.093482 C512.45699,24.8463743 388.690682,38.963345 271.678618,38.4216145 C154.662788,37.8780029 -60.8403606,-99.9077694 16.2845649,150.877723" id="Fill-1" fill="#FBFCFD" mask="url(#mask-2)"></path>
                    </g>
                    <g id="Data" transform="translate(393.542553, 308.558737)">
                        <path d="M9.07445106,5.34614843e-15 L254.845353,5.34614843e-15 C259.857089,5.34614843e-15 263.921311,4.05846449 263.921311,9.06495739 L263.921311,70.8974772 C263.921311,75.9039701 259.857089,79.9639394 254.845353,79.9639394 L9.07445106,79.9639394 C4.06271489,79.9639394 -2.14069897e-14,75.9039701 -2.14069897e-14,70.8974772 L-2.14069897e-14,9.06495739 C-2.14069897e-14,4.05846449 4.06271489,5.34614843e-15 9.07445106,5.34614843e-15" id="Fill-4" fill="#FEFEFE"></path>
                        <path d="M9.07445106,5.34614843e-15 L254.845353,5.34614843e-15 C259.857089,5.34614843e-15 263.921311,4.05846449 263.921311,9.06495739 L263.921311,70.8974772 C263.921311,75.9039701 259.857089,79.9639394 254.845353,79.9639394 L9.07445106,79.9639394 C4.06271489,79.9639394 -2.14069897e-14,75.9039701 -2.14069897e-14,70.8974772 L-2.14069897e-14,9.06495739 C-2.14069897e-14,4.05846449 4.06271489,5.34614843e-15 9.07445106,5.34614843e-15 Z" id="Stroke-6" stroke="#DCE7EF" stroke-width="0.5"></path>
                        <polygon id="Fill-75" fill="#FEFEFE" points="27.1638511 61.6725588 231.304353 61.6725588 231.304353 40.2019725 27.1638511 40.2019725"></polygon>
                        <polygon id="Fill-76" fill="#DCE7EF" points="27.1638511 62.5664142 231.304353 62.5664142 231.304353 61.671054 27.1638511 61.671054"></polygon>
                        <path d="M55.5325072,49.148652 L86.4118519,49.148652 C87.3910009,49.148652 88.1848647,49.9492094 88.1848647,50.9363628 C88.1848647,51.9265258 87.3910009,52.7270831 86.4118519,52.7270831 L55.5325072,52.7270831 C54.5533583,52.7270831 53.7594945,51.9265258 53.7594945,50.9363628 C53.7594945,49.9492094 54.5533583,49.148652 55.5325072,49.148652" id="Fill-77" fill="#BBD7DF"></path>
                        <path d="M155.064051,49.148652 L179.88623,49.148652 C180.865379,49.148652 181.659243,49.9492094 181.659243,50.9363628 C181.659243,51.9265258 180.865379,52.7270831 179.88623,52.7270831 L155.064051,52.7270831 C154.084902,52.7270831 153.289532,51.9265258 153.289532,50.9363628 C153.289532,49.9492094 154.084902,49.148652 155.064051,49.148652" id="Fill-78" fill="#BBD7DF"></path>
                        <path d="M197.616508,49.148652 L222.440193,49.148652 C223.417836,49.148652 224.2117,49.9492094 224.2117,50.9363628 C224.2117,51.9265258 223.417836,52.7270831 222.440193,52.7270831 L197.616508,52.7270831 C196.637359,52.7270831 195.843495,51.9265258 195.843495,50.9363628 C195.843495,49.9492094 196.637359,49.148652 197.616508,49.148652" id="Fill-79" fill="#BBD7DF"></path>
                        <path d="M39.5756936,46.4639259 L44.8947319,46.4639259 C45.8738809,46.4639259 46.6677447,47.265988 46.6677447,48.2531414 L46.6677447,53.620788 C46.6677447,54.6094462 45.8738809,55.4100035 44.8947319,55.4100035 L39.5756936,55.4100035 C38.5965447,55.4100035 37.8011745,54.6094462 37.8011745,53.620788 L37.8011745,48.2531414 C37.8011745,47.265988 38.5965447,46.4639259 39.5756936,46.4639259" id="Fill-80" fill="#E7636E"></path>
                        <path d="M119.602289,47.3588346 L137.333923,47.3588346 C138.313072,47.3588346 139.10543,48.1593919 139.10543,49.1480501 L139.10543,52.7264812 C139.10543,53.7151394 138.313072,54.5156967 137.333923,54.5156967 L119.602289,54.5156967 C118.624647,54.5156967 117.829277,53.7151394 117.829277,52.7264812 L117.829277,49.1480501 C117.829277,48.1593919 118.624647,47.3588346 119.602289,47.3588346" id="Fill-81" fill="#20B57C"></path>
                        <polygon id="Fill-82" fill="#FEFEFE" points="27.1638511 39.3066123 231.304353 39.3066123 231.304353 17.836026 27.1638511 17.836026"></polygon>
                        <polygon id="Fill-83" fill="#DCE7EF" points="27.1638511 40.2019725 231.304353 40.2019725 231.304353 39.3066123 27.1638511 39.3066123"></polygon>
                        <polygon id="Fill-84" fill="#DCE7EF" points="27.1638511 17.8330164 231.304353 17.8330164 231.304353 16.9376562 27.1638511 16.9376562"></polygon>
                        <path d="M55.5325072,26.7837589 L86.4118519,26.7837589 C87.3910009,26.7837589 88.1848647,27.5843162 88.1848647,28.5714696 C88.1848647,29.5616326 87.3910009,30.36219 86.4118519,30.36219 L55.5325072,30.36219 C54.5533583,30.36219 53.7594945,29.5616326 53.7594945,28.5714696 C53.7594945,27.5843162 54.5533583,26.7837589 55.5325072,26.7837589" id="Fill-85" fill="#BBD7DF"></path>
                        <path d="M155.064051,26.7837589 L179.88623,26.7837589 C180.865379,26.7837589 181.659243,27.5843162 181.659243,28.5714696 C181.659243,29.5616326 180.865379,30.36219 179.88623,30.36219 L155.064051,30.36219 C154.084902,30.36219 153.289532,29.5616326 153.289532,28.5714696 C153.289532,27.5843162 154.084902,26.7837589 155.064051,26.7837589" id="Fill-86" fill="#BBD7DF"></path>
                        <path d="M197.616508,26.7837589 L222.440193,26.7837589 C223.417836,26.7837589 224.2117,27.5843162 224.2117,28.5714696 C224.2117,29.5616326 223.417836,30.36219 222.440193,30.36219 L197.616508,30.36219 C196.637359,30.36219 195.843495,29.5616326 195.843495,28.5714696 C195.843495,27.5843162 196.637359,26.7837589 197.616508,26.7837589" id="Fill-87" fill="#BBD7DF"></path>
                        <path d="M39.5756936,24.1003871 L44.8947319,24.1003871 C45.8738809,24.1003871 46.6677447,24.9009444 46.6677447,25.8880978 L46.6677447,31.2572492 C46.6677447,32.2444026 45.8738809,33.0449599 44.8947319,33.0449599 L39.5756936,33.0449599 C38.5965447,33.0449599 37.8011745,32.2444026 37.8011745,31.2572492 L37.8011745,25.8880978 C37.8011745,24.9009444 38.5965447,24.1003871 39.5756936,24.1003871" id="Fill-88" fill="#A674B2"></path>
                        <path d="M119.602289,24.9939415 L137.333923,24.9939415 C138.313072,24.9939415 139.10543,25.7944988 139.10543,26.783157 L139.10543,30.361588 C139.10543,31.3502462 138.313072,32.1508036 137.333923,32.1508036 L119.602289,32.1508036 C118.624647,32.1508036 117.829277,31.3502462 117.829277,30.361588 L117.829277,26.783157 C117.829277,25.7944988 118.624647,24.9939415 119.602289,24.9939415" id="Fill-89" fill="#20B57C"></path>
                    </g>
                    <g id="MyWork" transform="translate(549.829787, 137.956886)">
                        <path d="M9.12717447,-1.06922969e-14 L147.508034,-1.06922969e-14 C152.549898,-1.06922969e-14 156.636715,4.0825414 156.636715,9.11762564 L156.636715,106.346216 C156.636715,111.3813 152.549898,115.462337 147.508034,115.462337 L9.12717447,115.462337 C4.08681702,115.462337 -4.28139793e-14,111.3813 -4.28139793e-14,106.346216 L-4.28139793e-14,9.11762564 C-4.28139793e-14,4.0825414 4.08681702,-1.06922969e-14 9.12717447,-1.06922969e-14" id="Fill-8" fill="#FEFEFE"></path>
                        <path d="M9.12717447,-1.06922969e-14 L147.508034,-1.06922969e-14 C152.549898,-1.06922969e-14 156.636715,4.0825414 156.636715,9.11762564 L156.636715,106.346216 C156.636715,111.3813 152.549898,115.462337 147.508034,115.462337 L9.12717447,115.462337 C4.08681702,115.462337 -4.28139793e-14,111.3813 -4.28139793e-14,106.346216 L-4.28139793e-14,9.11762564 C-4.28139793e-14,4.0825414 4.08681702,-1.06922969e-14 9.12717447,-1.06922969e-14 Z" id="Stroke-10" stroke="#DCE7EF" stroke-width="0.5"></path>
                        <path d="M133.739242,98.1343335 L30.8623226,98.1343335 L30.8623226,34.3365357 L138.291531,34.3365357 L138.291531,93.5868067 C138.291531,96.0983296 136.254901,98.1343335 133.739242,98.1343335" id="Fill-95" fill="#EDF2F7"></path>
                        <line x1="30.9682213" y1="97.9475869" x2="30.9682213" y2="17.1018306" id="Stroke-96" stroke="#C0D2DD" stroke-width="0.5"></line>
                        <line x1="31.1771566" y1="26.6823349" x2="138.314127" y2="26.6823349" id="Stroke-97" stroke="#C0D2DD" stroke-width="0.5"></line>
                        <line x1="52.4385472" y1="34.3357833" x2="52.4385472" y2="97.8627158" id="Stroke-98" stroke="#C0D2DD" stroke-width="0.5"></line>
                        <line x1="73.8663932" y1="34.3357833" x2="73.8663932" y2="97.8627158" id="Stroke-99" stroke="#C0D2DD" stroke-width="0.5"></line>
                        <line x1="95.2940885" y1="34.3357833" x2="95.2940885" y2="97.8627158" id="Stroke-100" stroke="#C0D2DD" stroke-width="0.5"></line>
                        <line x1="116.720277" y1="34.3357833" x2="116.720277" y2="97.8627158" id="Stroke-101" stroke="#C0D2DD" stroke-width="0.5"></line>
                        <path d="M133.94652,97.9475869 L23.3493881,97.9475869 C20.9753285,97.9475869 19.0516774,96.0244436 19.0516774,93.6528677 L19.0516774,21.2385451 C19.0516774,18.8654644 20.9753285,16.9438259 23.3493881,16.9438259 L133.94652,16.9438259 C136.32058,16.9438259 138.245737,18.8654644 138.245737,21.2385451 L138.245737,93.6528677 C138.245737,96.0244436 136.32058,97.9475869 133.94652,97.9475869 Z" id="Stroke-102" stroke="#C0D2DD" stroke-width="0.5"></path>
                        <line x1="31.1771566" y1="34.3357833" x2="138.314127" y2="34.3357833" id="Stroke-103" stroke="#C0D2DD" stroke-width="0.5"></line>
                    </g>
                    <g id="Reports" transform="translate(73.436170, 47.098520)">
                        <path d="M8.33180426,0 L256.749421,0 C261.351421,0 265.081226,3.72740695 265.081226,8.32308754 L265.081226,85.0501871 C265.081226,89.6458677 261.351421,93.3732746 256.749421,93.3732746 L8.33180426,93.3732746 C3.72980426,93.3732746 -2.14069897e-14,89.6458677 -2.14069897e-14,85.0501871 L-2.14069897e-14,8.32308754 C-2.14069897e-14,3.72740695 3.72980426,0 8.33180426,0" id="Fill-16" fill="#FEFEFE"></path>
                        <path d="M8.33180426,0 L256.749421,0 C261.351421,0 265.081226,3.72740695 265.081226,8.32308754 L265.081226,85.0501871 C265.081226,89.6458677 261.351421,93.3732746 256.749421,93.3732746 L8.33180426,93.3732746 C3.72980426,93.3732746 -2.14069897e-14,89.6458677 -2.14069897e-14,85.0501871 L-2.14069897e-14,8.32308754 C-2.14069897e-14,3.72740695 3.72980426,0 8.33180426,0 Z" id="Stroke-18" stroke="#DCE7EF" stroke-width="0.5"></path>
                        <line x1="38.3992085" y1="14.3955857" x2="38.3992085" y2="80.0458009" id="Stroke-35" stroke="#BBD7DF" stroke-width="0.5" stroke-linecap="square"></line>
                        <line x1="38.3992085" y1="80.4367497" x2="144.263285" y2="80.4367497" id="Stroke-37" stroke="#BBD7DF" stroke-width="0.5"></line>
                        <line x1="38.6051311" y1="63.6339243" x2="144.443599" y2="63.6339243" id="Stroke-39" stroke="#BBD7DF" stroke-width="0.5" stroke-linecap="square" stroke-dasharray="1.6"></line>
                        <line x1="38.6051311" y1="47.6116422" x2="144.443599" y2="47.6116422" id="Stroke-41" stroke="#BBD7DF" stroke-width="0.5" stroke-linecap="square" stroke-dasharray="1.6"></line>
                        <line x1="38.6051311" y1="31.1997655" x2="144.443599" y2="31.1997655" id="Stroke-43" stroke="#BBD7DF" stroke-width="0.5" stroke-linecap="square" stroke-dasharray="1.6"></line>
                        <line x1="38.6051311" y1="14.7865346" x2="144.443599" y2="14.7865346" id="Stroke-45" stroke="#BBD7DF" stroke-width="0.5" stroke-linecap="square" stroke-dasharray="1.6"></line>
                        <polygon id="Fill-47" fill="#BBD7DF" points="40.8127353 80.4362983 46.7132374 80.4362983 46.7132374 21.0385562 40.8127353 21.0385562"></polygon>
                        <polygon id="Fill-49" fill="#DCE7EF" points="48.7890332 80.3700868 54.6895353 80.3700868 54.6895353 61.6126675 48.7890332 61.6126675"></polygon>
                        <polygon id="Fill-50" fill="#BBD7DF" points="61.1986162 80.4362983 67.0991183 80.4362983 67.0991183 49.1754376 61.1986162 49.1754376"></polygon>
                        <polygon id="Fill-51" fill="#DCE7EF" points="69.162863 80.4362983 75.0633651 80.4362983 75.0633651 70.2758414 69.162863 70.2758414"></polygon>
                        <polygon id="Fill-52" fill="#BBD7DF" points="82.119263 80.4362983 88.0197651 80.4362983 88.0197651 28.8545238 82.119263 28.8545238"></polygon>
                        <polygon id="Fill-53" fill="#DCE7EF" points="90.0940545 80.4362983 95.9945566 80.4362983 95.9945566 49.1754376 90.0940545 49.1754376"></polygon>
                        <polygon id="Fill-54" fill="#BBD7DF" points="102.503637 80.4362983 108.405646 80.4362983 108.405646 37.4514862 102.503637 37.4514862"></polygon>
                        <polygon id="Fill-55" fill="#DCE7EF" points="110.437757 80.4362983 116.338259 80.4362983 116.338259 56.2074007 110.437757 56.2074007"></polygon>
                        <polygon id="Fill-56" fill="#BBD7DF" points="123.425791 80.4362983 129.327799 80.4362983 129.327799 37.4514862 123.425791 37.4514862"></polygon>
                        <polygon id="Fill-57" fill="#DCE7EF" points="131.403595 80.4362983 137.304097 80.4362983 137.304097 14.7860831 131.403595 14.7860831"></polygon>
                        <path d="M185.134769,41.5865454 L208.217076,41.5865454 C209.013952,41.5865454 209.658684,42.2396316 209.658684,43.0431986 C209.658684,43.8467655 209.013952,44.498347 208.217076,44.498347 L185.134769,44.498347 C184.337893,44.498347 183.691654,43.8467655 183.691654,43.0431986 C183.691654,42.2396316 184.337893,41.5865454 185.134769,41.5865454" id="Fill-58" fill="#BBD7DF"></path>
                        <path d="M189.462608,48.8651464 L203.889237,48.8651464 C204.684608,48.8651464 205.330846,49.5182326 205.330846,50.3217996 C205.330846,51.1253665 204.684608,51.776948 203.889237,51.776948 L189.462608,51.776948 C188.665731,51.776948 188.019493,51.1253665 188.019493,50.3217996 C188.019493,49.5182326 188.665731,48.8651464 189.462608,48.8651464" id="Fill-59" fill="#BBD7DF"></path>
                        <path d="M196.67532,14.6557669 C212.221192,14.6557669 225.094741,26.1961318 227.343771,41.250221 C224.150239,41.7723891 220.349635,42.3713023 215.940452,43.051475 C214.55006,33.5726957 206.454758,26.3014683 196.67532,26.3014683 C185.919746,26.3014683 177.199294,35.1000748 177.199294,45.9542477 C177.199294,54.8311042 183.033516,62.3355768 191.04446,64.7733641 C189.782111,69.1583717 188.753252,72.9008268 187.957882,75.9992244 C175.070775,72.1980819 165.658894,60.1852076 165.658894,45.9542477 C165.658894,28.6685297 179.546239,14.6557669 196.67532,14.6557669" id="Fill-60" fill="#BBD7DF"></path>
                        <path d="M227.719463,44.7343007 C227.723982,44.9540025 227.690842,45.7319877 227.690842,45.9546992 C227.690842,63.2404172 213.80651,77.2516752 196.675923,77.2516752 C194.863744,77.2516752 193.089225,77.0966801 191.361403,76.7957187 L193.967446,65.417873 C194.853199,65.5427719 195.757029,65.6059738 196.675923,65.6059738 C207.353165,65.6059738 216.023906,56.9337711 216.148935,46.1894491 L227.719463,44.7343007 Z" id="Fill-61" fill="#DCE7EF"></path>
                    </g>
                    <g id="Cards" transform="translate(177.000000, 166.172017)">
                        <g id="Group-6">
                            <path d="M2.86363404,0 L111.686247,0 C113.269455,0 114.551387,1.29262922 114.551387,2.88922945 L114.551387,49.1259295 C114.551387,50.7225297 113.269455,52.0166637 111.686247,52.0166637 L2.86363404,52.0166637 C1.28042553,52.0166637 -1.07034948e-14,50.7225297 -1.07034948e-14,49.1259295 L-1.07034948e-14,2.88922945 C-1.07034948e-14,1.29262922 1.28042553,0 2.86363404,0" id="Fill-62" fill="#FEFEFE"></path>
                            <path d="M10.021966,34.6781269 L18.6143745,34.6781269 C19.4052255,34.6781269 20.0454383,35.3251939 20.0454383,36.1227417 L20.0454383,44.7934396 C20.0454383,45.5909873 19.4052255,46.2380543 18.6143745,46.2380543 L10.021966,46.2380543 C9.23262128,46.2380543 8.59090213,45.5909873 8.59090213,44.7934396 L8.59090213,36.1227417 C8.59090213,35.3251939 9.23262128,34.6781269 10.021966,34.6781269" id="Fill-65" fill="#20B57C"></path>
                            <polyline id="Stroke-66" stroke="#FEFEFE" stroke-width="0.5" stroke-linecap="round" stroke-linejoin="round" points="11.4546868 41.1808494 12.8857506 42.6254642 17.1819549 38.2901152"></polyline>
                            <path d="M10.021966,26.0078804 L93.0733787,26.0078804 C93.8627234,26.0078804 94.5044426,26.6564522 94.5044426,27.4539999 C94.5044426,28.2515477 93.8627234,28.8986147 93.0733787,28.8986147 L10.021966,28.8986147 C9.23262128,28.8986147 8.59090213,28.2515477 8.59090213,27.4539999 C8.59090213,26.6564522 9.23262128,26.0078804 10.021966,26.0078804" id="Fill-67" fill="#BBD7DF"></path>
                            <path d="M10.021966,17.3389882 L93.0733787,17.3389882 C93.8627234,17.3389882 94.5044426,17.9860552 94.5044426,18.7836029 C94.5044426,19.5811507 93.8627234,20.2282177 93.0733787,20.2282177 L10.021966,20.2282177 C9.23262128,20.2282177 8.59090213,19.5811507 8.59090213,18.7836029 C8.59090213,17.9860552 9.23262128,17.3389882 10.021966,17.3389882" id="Fill-68" fill="#BBD7DF"></path>
                            <path d="M10.021966,8.66874171 L104.527915,8.66874171 C105.318766,8.66874171 105.960485,9.31731353 105.960485,10.1148612 C105.960485,10.912409 105.318766,11.559476 104.527915,11.559476 L10.021966,11.559476 C9.23262128,11.559476 8.59090213,10.912409 8.59090213,10.1148612 C8.59090213,9.31731353 9.23262128,8.66874171 10.021966,8.66874171" id="Fill-69" fill="#BBD7DF"></path>
                        </g>
                        <g id="Group-7" transform="translate(0.000000, 63.576591)">
                            <path d="M2.86363404,2.13845937e-14 L111.686247,2.13845937e-14 C113.269455,2.13845937e-14 114.551387,0.765946765 114.551387,1.71247037 L114.551387,63.6668795 C114.551387,64.6118983 113.269455,65.3778451 111.686247,65.3778451 L2.86363404,65.3778451 C1.28042553,65.3778451 -1.07034948e-14,64.6118983 -1.07034948e-14,63.6668795 L-1.07034948e-14,1.71247037 C-1.07034948e-14,0.765946765 1.28042553,2.13845937e-14 2.86363404,2.13845937e-14" id="Fill-70" fill="#FEFEFE"></path>
                            <path d="M10.021966,26.0078804 L93.0733787,26.0078804 C93.8627234,26.0078804 94.5044426,26.6564522 94.5044426,27.4539999 C94.5044426,28.2515477 93.8627234,28.8986147 93.0733787,28.8986147 L10.021966,28.8986147 C9.23262128,28.8986147 8.59090213,28.2515477 8.59090213,27.4539999 C8.59090213,26.6564522 9.23262128,26.0078804 10.021966,26.0078804" id="Fill-72" fill="#BBD7DF"></path>
                            <path d="M10.021966,17.3391387 L93.0733787,17.3391387 C93.8627234,17.3391387 94.5044426,17.9862057 94.5044426,18.7837534 C94.5044426,19.5813011 93.8627234,20.2283682 93.0733787,20.2283682 L10.021966,20.2283682 C9.23262128,20.2283682 8.59090213,19.5813011 8.59090213,18.7837534 C8.59090213,17.9862057 9.23262128,17.3391387 10.021966,17.3391387" id="Fill-73" fill="#BBD7DF"></path>
                            <path d="M10.021966,8.66874171 L104.527915,8.66874171 C105.318766,8.66874171 105.960485,9.31731353 105.960485,10.1148612 C105.960485,10.912409 105.318766,11.559476 104.527915,11.559476 L10.021966,11.559476 C9.23262128,11.559476 8.59090213,10.912409 8.59090213,10.1148612 C8.59090213,9.31731353 9.23262128,8.66874171 10.021966,8.66874171" id="Fill-74" fill="#BBD7DF"></path>
                        </g>
                        <path d="M2.86363404,0 L111.686247,0 C113.269455,0 114.551387,1.29262922 114.551387,2.88922945 L114.551387,49.1259295 C114.551387,50.7225297 113.269455,52.0166637 111.686247,52.0166637 L2.86363404,52.0166637 C1.28042553,52.0166637 0,50.7225297 0,49.1259295 L0,2.88922945 C0,1.29262922 1.28042553,0 2.86363404,0 Z" id="Stroke-63" stroke="#DCE7EF" stroke-width="0.5"></path>
                        <path d="M2.86363404,63.5765911 L111.686247,63.5765911 C113.269455,63.5765911 114.551387,64.3425379 114.551387,65.2890615 L114.551387,127.243471 C114.551387,128.188489 113.269455,128.954436 111.686247,128.954436 L2.86363404,128.954436 C1.28042553,128.954436 0,128.188489 0,127.243471 L0,65.2890615 C0,64.3425379 1.28042553,63.5765911 2.86363404,63.5765911 Z" id="Stroke-71" stroke="#DCE7EF" stroke-width="0.5"></path>
                    </g>
                    <g id="Card-#2" transform="translate(414.255319, 0.073301)">
                        <path d="M8.60445957,0 L145.049617,0 C149.802255,0 153.655583,3.84929632 153.655583,8.59545761 L153.655583,74.1914997 C153.655583,78.937661 149.802255,82.7869573 145.049617,82.7869573 L8.60445957,82.7869573 C3.85332766,82.7869573 -4.28139793e-14,78.937661 -4.28139793e-14,74.1914997 L-4.28139793e-14,8.59545761 C-4.28139793e-14,3.84929632 3.85332766,0 8.60445957,0" id="Fill-12" fill="#FEFEFE"></path>
                        <path d="M8.60445957,0 L145.049617,0 C149.802255,0 153.655583,3.84929632 153.655583,8.59545761 L153.655583,74.1914997 C153.655583,78.937661 149.802255,82.7869573 145.049617,82.7869573 L8.60445957,82.7869573 C3.85332766,82.7869573 -4.28139793e-14,78.937661 -4.28139793e-14,74.1914997 L-4.28139793e-14,8.59545761 C-4.28139793e-14,3.84929632 3.85332766,0 8.60445957,0 Z" id="Stroke-14" stroke="#DCE7EF" stroke-width="0.5"></path>
                        <path d="M22.8798485,64.4671359 C31.3803677,64.8839674 39.9019762,64.926102 48.4085209,64.9276256 C57.3971081,64.9291116 66.3887081,64.840328 75.3727762,64.5935397 C78.7380357,64.5002417 82.1078145,64.403934 85.4685549,64.178213 C86.4311336,64.1120014 86.4371591,62.6071944 85.4685549,62.6734059 C78.4668868,63.1459153 71.4275591,63.210622 64.4108272,63.3099393 C55.0125038,63.4438671 45.6096613,63.4754681 36.2098315,63.3400355 C31.7644953,63.2768336 27.3191591,63.1820307 22.8798485,62.9623289 C21.9097379,62.9156799 21.9127506,64.4204869 22.8798485,64.4671359" id="Fill-30" fill="#BBD7DF"></path>
                        <text id="1h" font-family="ProximaNova-Semibold, Proxima Nova" font-size="10.16784" font-weight="500" letter-spacing="0.00160000008" fill="#BBD7DF">
                            <tspan x="117.106966" y="63.9985727">1h</tspan>
                        </text>
                        <path d="M30.1351915,40.9751423 C30.2526894,42.4949974 29.7179234,47.730221 27.3001787,45.2322413 C25.5678383,43.441521 25.2891574,40.21371 24.8583319,37.8767447 C24.4726979,35.7895774 24.2316766,33.6723139 24.0644681,31.5475264 C27.4161702,33.469165 29.8293957,37.0731778 30.1351915,40.9751423 M24.1653957,20.2674931 C24.4124426,17.9335375 24.9457021,15.036784 27.2203404,13.8509961 C29.421166,12.7028283 31.8389106,13.8163855 31.506,16.5009612 C31.1776085,19.1584504 29.1741191,21.4292041 27.3544085,23.2259437 C26.2773447,24.2898423 25.1083915,25.2303466 23.8686383,26.0655145 C23.8852085,24.1273231 23.9605277,22.1906365 24.1653957,20.2674931 M44.848034,27.940504 C43.542,28.6462585 41.9859064,27.6259994 41.4074553,26.4056009 C40.8079149,25.1460774 41.0218213,23.6668522 41.3969106,22.2779153 C41.5957532,21.6624492 41.7825447,21.0469832 41.952766,20.4465652 C42.3730468,18.9492822 40.1164851,18.3353209 39.6510128,19.8070222 C39.5139319,20.2464258 39.3798638,20.7008776 39.254834,21.1643581 C38.3585362,24.0897029 36.977183,27.3521245 33.8785532,28.1782636 C31.9398383,28.6944124 29.8685617,28.1993309 27.9177957,27.9931723 C27.0320426,27.8998743 26.1824426,27.878807 25.3448936,27.9480281 C26.9205702,26.8720911 28.3938128,25.6471782 29.7028596,24.2492125 C31.750034,22.0642327 33.7490043,19.3856762 33.9237447,16.2662113 C34.0789021,13.4507174 32.1296426,11.0460358 29.272034,10.9542426 C26.2652936,10.8549253 23.8339915,12.9797128 22.758434,15.6748222 C21.4162468,19.0335514 21.4539064,23.1311409 21.4554128,26.6945238 C21.4554128,26.9548555 21.471983,27.2136823 21.4749957,27.4755187 C21.0426638,27.7057542 20.6118383,27.9389992 20.1644426,28.1466626 C18.7710383,28.79072 19.9821702,30.8688585 21.3695489,30.2248011 C21.4343234,30.1947049 21.4945787,30.1570848 21.5593532,30.1269886 C21.7190298,33.0357806 22.0685106,35.9340389 22.6077957,38.7961818 C23.1696766,41.7711852 23.6923915,45.7694574 26.4174383,47.6248845 C29.1018128,49.4517202 31.6641702,47.2592164 32.2727489,44.509934 C33.4959319,38.9903019 30.8055319,33.4541169 26.4189447,30.2759645 C27.7174468,30.303051 29.0385447,30.5588682 30.2752851,30.6867768 C32.3495745,30.9019642 34.4389277,30.8207047 36.2993106,29.7658349 C37.4697702,29.1022151 38.3886638,28.1677299 39.1418553,27.0948025 C39.3391915,27.6004177 39.5862383,28.0924896 39.9583149,28.5469413 C41.449634,30.3767866 43.9246213,31.1698199 46.0501277,30.0201473 C47.4058723,29.2873063 46.200766,27.2091678 44.848034,27.940504" id="Fill-33" fill="#BBD7DF"></path>
                    </g>
                    <g id="Tempo" transform="translate(314.145061, 87.932398)">
                        <line x1="156.691321" y1="103.996836" x2="226.273034" y2="103.996836" id="Stroke-90" stroke="#064975" stroke-dasharray="2"></line>
                        <line x1="129.886366" y1="57.8146851" x2="160.810526" y2="0" id="Stroke-91" stroke="#064975" stroke-dasharray="2"></line>
                        <line x1="81.1754011" y1="70.660282" x2="33.0106883" y2="29.3063045" id="Stroke-92" stroke="#064975" stroke-dasharray="2"></line>
                        <line x1="65.491883" y1="132.40289" x2="-5.35174741e-14" y2="159.239241" id="Stroke-93" stroke="#064975" stroke-dasharray="2"></line>
                        <line x1="131.157" y1="161.112162" x2="151.835872" y2="216.782497" id="Stroke-94" stroke="#064975" stroke-dasharray="2"></line>
                        <path d="M182.642911,105.574814 C182.642911,143.228847 152.39474,173.753857 115.079751,173.753857 C77.7666447,173.753857 47.5147085,143.228847 47.5147085,105.574814 C47.5147085,67.9207808 77.7666447,37.3957708 115.079751,37.3957708 C152.39474,37.3957708 182.642911,67.9207808 182.642911,105.574814" id="Fill-20" fill="#064975"></path>
                        <path d="M151.606902,105.179802 C151.606902,125.526674 135.281477,142.023121 115.143019,142.023121 C114.636498,142.023121 114.133743,142.013716 113.630987,141.993025 L110.126764,135.857174 C111.757423,136.126158 113.435157,136.265353 115.143019,136.265353 C132.135019,136.265353 145.910891,122.347769 145.910891,105.179802 C145.910891,102.567081 145.590785,100.033362 144.990115,97.610623 L148.791849,90.9574951 C150.605157,95.3346024 151.606902,100.138699 151.606902,105.179802" id="Fill-22" fill="#FEFEFE"></path>
                        <path d="M84.3271309,105.16513 C84.3271309,119.509703 93.9736309,131.582017 107.079163,135.144648 L110.839471,141.711249 C92.7026202,139.578186 78.6273543,124.027886 78.6273543,105.16513 C78.6273543,97.983439 80.6685032,91.2795238 84.1953223,85.6158064 L91.1924713,85.6158064 C86.8992798,90.9541092 84.3271309,97.7577179 84.3271309,105.16513" id="Fill-24" fill="#FEFEFE"></path>
                        <path d="M115.116846,68.3567987 C129.284378,68.3567987 141.568931,76.4865185 147.613293,88.3650888 L144.073293,94.5347975 C139.78575,82.612964 128.43892,74.0957564 115.116846,74.0957564 C106.56059,74.0957564 98.8234309,77.6075997 93.2422819,83.2769601 L85.7536755,83.2769601 C92.4005904,74.225546 103.075197,68.3567987 115.116846,68.3567987" id="Fill-26" fill="#FEFEFE"></path>
                        <polygon id="Fill-28" fill="#FEFEFE" points="110.411282 119.798062 97.4902819 106.802172 103.950782 100.305168 110.411282 106.802172 126.563473 90.5558997 133.025856 97.0547849"></polygon>
                    </g>
                </g>
                <g id="Woman-at-desk" transform="translate(0.000000, 120.062937)">
                    <path d="M274.192096,62.1236427 L313.548633,62.1236427 C314.536687,62.1236427 315.33654,62.9334454 315.33654,63.9315742 C315.33654,64.929703 314.536687,65.7395056 313.548633,65.7395056 L274.192096,65.7395056 C273.204042,65.7395056 272.402307,64.929703 272.402307,63.9315742 C272.402307,62.9334454 273.204042,62.1236427 274.192096,62.1236427" id="Fill-64" fill="#BBD7DF"></path>
                    <path d="M293.041528,8.87535416 C307.97902,-7.62013681 337.855887,0.626667043 337.342099,20.7304878 C336.826429,40.8343086 337.855887,35.6779375 344.553951,37.2259788 C351.250133,38.7721368 354.856059,39.8022811 353.826601,49.0811125 C352.795261,58.3580606 341.463695,65.5747202 350.220675,69.18305 C358.977655,72.7913798 373.917029,80.0080394 357.946315,97.0195441 C341.977483,114.031049 287.890474,105.782362 273.46677,87.2265822 C259.043066,68.6689195 251.180039,53.1903899 268.693999,49.0660464 C286.20796,44.9417028 280.541235,47.5217716 275.907733,37.2109127 C271.270467,26.9000538 270.890302,14.5458557 279.131612,7.32919614 C287.374804,0.112536544 293.041528,8.87535416 293.041528,8.87535416" id="Fill-104" fill="#0B1528"></path>
                    <path d="M290.161492,78.8558597 C280.659237,79.5865654 269.237335,88.5038104 264.707343,109.419317 C260.173587,130.336707 260.811588,178.275139 260.811588,178.275139 L270.547212,182.495529 L283.930166,95.4624632" id="Fill-105" fill="#CB6128"></path>
                    <path d="M296.390184,78.083534 C286.677144,76.1569571 278.753893,74.7049622 272.479281,94.6016241 C270.439185,101.070629 271.099769,106.690282 268.427319,110.09522 C242.305057,143.359275 279.670431,147.142748 273.405228,185.674286 C267.388451,222.686032 348.391929,219.077703 348.391929,219.077703 C348.391929,219.077703 339.106104,204.597302 341.422855,189.352297 C345.066422,165.342591 359.215353,155.905565 353.719891,118.488918 C351.164125,101.095111 348.979115,90.1947913 336.619973,82.3039239" id="Fill-106" fill="#3F0525"></path>
                    <path d="M343.704978,94.4038816 C338.171876,106.893675 332.315069,123.96356 347.662839,131.739549 C351.249945,148.406417 344.437078,183.561266 354.690254,189.395612 C367.798435,196.853329 377.319511,199.143375 377.108726,180.798521 C376.980749,169.576164 377.321393,144.404485 375.301999,132.920354 C371.13147,109.191254 363.541335,103.603616 346.319086,89.4094711 C344.324158,94.579025 349.238079,81.915972 343.704978,94.4038816" id="Fill-107" fill="#DF7426"></path>
                    <path d="M310.36917,65.7172831 C310.36917,65.7172831 302.743276,69.2163837 309.522266,79.1826057 C299.666194,83.7137338 286.717984,110.563399 294.607358,113.294128 C302.498615,116.021092 332.725535,82.4161664 332.725535,82.4161664 L330.561226,65.8585277" id="Fill-108" fill="#CB6128"></path>
                    <path d="M289.577129,68.0969728 C293.38443,76.9520703 295.795281,82.573607 303.5755,84.6960432 C306.005171,85.3589514 308.649391,85.852366 311.596615,86.2572673 C314.349992,85.6979385 315.234535,85.7939849 318.019906,83.7205135 C321.495974,80.1517322 329.729756,69.8276905 331.005757,65.3436439 C334.385842,53.4715609 341.236348,46.1023571 333.508826,35.9948905 C323.003461,22.2564949 307.604877,16.5803436 294.839222,26.0832831 C282.071684,35.5862227 282.745442,52.2060089 289.577129,68.0969728" id="Fill-109" fill="#DF7426"></path>
                    <path d="M331.005192,65.3438323 C330.233569,30.8142253 302.75438,38.2644094 301.568715,33.1249877 C288.784239,33.9234907 285.044691,48.3436271 285.044691,67.0726667 C285.044691,67.0726667 278.610108,36.3434823 282.29696,26.0175573 C284.353994,20.2604256 303.868528,15.2264666 303.868528,15.2264666 L320.646624,18.4242453 C320.646624,18.4242453 335.002576,35.8801998 339.64737,40.0685743 C344.290282,44.2569488 331.005192,65.3438323 331.005192,65.3438323" id="Fill-110" fill="#0B1528"></path>
                    <path d="M338.693004,32.1733754 C338.77393,34.4596554 340.473383,35.0415833 341.31464,35.1376297 C347.197795,35.8193705 356.641708,36.0095799 357.050103,47.6029402" id="Stroke-111" stroke="#0C1629" stroke-width="0.5" stroke-linecap="round"></path>
                    <path d="M302.609654,60.6780509 C302.349936,65.2506108 301.934013,68.013356 301.487977,68.6498985 C298.591568,72.794958 301.250844,74.4051469 304.527419,72.2525785" id="Fill-112" fill="#0B1528"></path>
                    <line x1="456.349704" y1="273.133534" x2="3.10211269" y2="42.1891272" id="Stroke-113" stroke="#D6D8E1"></line>
                    <polyline id="Fill-114" fill="#A6C7D0" points="234.943774 167.462955 256.782587 178.653298 245.86318 185.583701 227.48726 175.457402"></polyline>
                    <polyline id="Fill-115" fill="#7099A3" points="235.210266 186.382016 267.964721 203.171296 236.2736 219.693153 212.038991 206.103535"></polyline>
                    <path d="M268.393443,84.5112952 C258.275771,71.3303452 255.413238,60.0590227 256.175451,55.6653727 C256.939546,51.2717227 263.810755,47.6407938 268.585407,46.1115851" id="Stroke-116" stroke="#0C1629" stroke-width="0.5" stroke-linecap="round"></path>
                    <path d="M9.53443737,45.9006598 C-2.93386124,65.7766058 -4.11764385,100.55857 11.6987458,157.945326 L333.249109,345.141559 C380.18449,331.207304 425.025197,305.363301 458.013022,272.131262 L9.53443737,45.9006598 Z" id="Fill-117" fill="#FEFEFE"></path>
                    <polygon id="Fill-118" fill="#D6D8E1" points="64.0247604 188.609162 333.052063 337.241841 331.597272 348.889815 64.3522297 197.117739"></polygon>
                    <path d="M360.92064,197.573112 C354.548163,197.448816 282.593376,185.439255 275.419164,183.156742 C237.455312,171.075617 252.940469,170.616101 268.980817,170.497455 C288.762596,170.350561 334.598885,175.256458 351.333694,175.586029 C368.070386,175.917483 377.361856,183.616258 377.201885,187.247187 C376.851832,195.296248 369.852646,197.746372 360.92064,197.573112" id="Fill-119" fill="#DF7426"></path>
                    <path d="M296.711819,195.480243 C296.267665,198.011347 296.073818,198.226039 295.104585,199.005709 L240.763505,230.823419 C237.739119,231.819664 234.874704,229.339408 234.741081,228.006059" id="Fill-120" fill="#A6C7D0"></path>
                    <path d="M237.03713,228.810588 L295.458402,197.079509 C297.379932,195.949552 297.276421,193.132192 295.272083,192.149129 L177.977858,134.551447" id="Fill-121" fill="#D6D8E1"></path>
                    <polyline id="Fill-122" fill="#A6C7D0" points="236.195308 189.810118 262.210296 203.143612 237.042212 216.266181 217.796805 205.471324"></polyline>
                    <path d="M264.962167,167.714936 C269.39994,169.136799 272.96258,176.869472 272.014048,179.571953 C270.401168,178.835597 267.469001,177.647259 267.469001,177.647259 C267.469001,177.647259 248.511541,187.472236 242.17294,183.364842 C235.832457,179.253682 239.046926,174.46643 243.989077,169.650929 C248.931228,164.837312 259.201342,165.869339 264.962167,167.714936" id="Fill-123" fill="#F58A1F"></path>
                    <path d="M260.558458,168.78896 C257.415506,166.85485 254.138931,162.698491 250.634633,161.933887 C247.128454,161.169283 245.410181,164.630718 247.346766,166.024332 C249.287116,167.417945 250.636515,166.685357 249.305936,168.706097" id="Fill-124" fill="#F58A1F"></path>
                    <path d="M293.464227,52.6208915 L293.159342,54.4777878 L293.420941,54.5211028 L293.727708,52.6623233 L293.464227,52.6208915 Z M297.440909,53.2762667 L297.134141,55.1331629 L298.705617,55.393053 C298.709382,55.3949363 298.711264,55.3949363 298.715028,55.3949363 C299.725665,55.5625466 300.849224,55.7471063 300.849224,55.7471063 L301.154109,53.8883268 L297.440909,53.2762667 Z M304.869192,54.5003869 L304.560542,56.3591664 L308.275625,56.9731098 L308.582392,55.1143303 L304.869192,54.5003869 Z M312.295592,55.7245071 L311.990707,57.5851699 L314.508833,57.9994875 L314.019511,59.110612 L315.741548,59.8695666 L316.23087,58.758442 L317.20575,56.536193 L314.813718,56.140708 L312.295592,55.7245071 Z M312.502613,62.5588646 L312.500731,62.5626311 L312.500731,62.5645143 L312.500731,62.5663976 C312.498849,62.5663976 312.496967,62.5682809 312.496967,62.5701641 L312.496967,62.5720474 L312.496967,62.5739307 L312.493203,62.5795804 L312.493203,62.5814637 L312.493203,62.583347 L312.491321,62.583347 L312.491321,62.5852302 L312.489439,62.5889968 L312.489439,62.59088 L312.487557,62.5927633 C312.485675,62.5946465 312.485675,62.5965298 312.483793,62.6002963 L312.483793,62.6021796 C312.481911,62.6021796 312.481911,62.6040628 312.481911,62.6040628 L312.481911,62.6059461 L312.481911,62.6078294 L312.480029,62.6134792 C312.480029,62.6153624 312.480029,62.6153624 312.478147,62.6172457 L312.478147,62.6191289 C312.478147,62.6191289 312.476265,62.6191289 312.476265,62.6210122 L312.476265,62.6228955 L310.987597,66.0052338 L312.711516,66.7641884 L314.22465,63.3178191 L312.502613,62.5588646 Z M309.472581,69.4534864 L307.955684,72.9036222 L309.67772,73.6606935 L311.194618,70.2124409 L309.472581,69.4534864 Z M306.440668,76.3499915 C306.440668,76.3499915 306.017216,77.310455 305.61823,78.2200705 L304.925652,79.798244 L306.64957,80.5553153 L308.164586,77.1070627 L306.440668,76.3499915 Z M303.410636,83.2446133 L302.37365,85.5986906 C302.108287,86.205101 301.893738,86.6928658 301.893738,86.6928658 L303.617657,87.4499371 L305.130791,84.0035678 L303.410636,83.2446133 Z M300.378722,90.1392351 L299.129069,92.9867271 L299.127187,92.9886103 L299.114013,93.0168593 C299.114013,93.0187425 299.114013,93.0187425 299.112131,93.0187425 L299.110249,93.0262756 C299.106485,93.0319254 299.104603,93.0375751 299.102721,93.0432249 L299.100839,93.0469915 C299.098957,93.050758 299.097075,93.0564078 299.095193,93.0601743 L299.093311,93.0620575 C299.093311,93.0639408 299.091429,93.0639408 299.091429,93.0658241 L299.089547,93.0714739 C299.087665,93.0733571 299.085783,93.0790069 299.083901,93.0846567 L299.080137,93.0884232 C299.059435,93.1449211 299.036851,93.1957691 299.014267,93.2409674 C299.004857,93.2616833 298.995447,93.2842824 298.989801,93.3031151 C298.910756,93.4801417 298.863706,93.5874876 298.863706,93.5874876 L300.583861,94.3464422 L302.102641,90.8981896 L300.378722,90.1392351 Z M297.346808,97.0357402 L296.680578,98.5536492 C296.678696,98.5555325 296.676814,98.559299 296.676814,98.5611823 L296.674932,98.5649488 C296.67305,98.5668321 296.67305,98.5687153 296.67305,98.5687153 L296.671168,98.5724819 C296.266536,99.4933969 295.831792,100.482109 295.831792,100.482109 L297.555711,101.241064 L299.070727,97.7928114 L297.346808,97.0357402 Z M294.316776,103.930362 L292.799878,107.378615 L294.521915,108.137569 L296.038813,104.689317 L294.316776,103.930362 Z M291.284863,110.824984 L289.769847,114.273236 L291.491883,115.034074 L293.008781,111.585822 L291.284863,110.824984 Z M288.252949,117.721489 C288.252949,117.721489 287.62624,119.145235 287.178323,120.16408 L287.178323,120.169729 C287.176441,120.171613 287.174559,120.173496 287.174559,120.175379 L287.174559,120.177262 C287.165149,120.197978 287.155738,120.216811 287.150092,120.23376 L287.146328,120.241293 C287.146328,120.243177 287.144446,120.24506 287.144446,120.246943 L286.737933,121.167858 L288.461852,121.928696 L289.974985,118.480443 L288.252949,117.721489 Z M285.222917,124.616111 C285.222917,124.616111 285.164575,124.751706 285.068592,124.966397 L285.06671,124.970164 C285.064828,124.97393 285.062946,124.97958 285.061064,124.983347 C285.061064,124.98523 285.061064,124.987113 285.059182,124.987113 L283.706019,128.066246 L285.428056,128.823318 L286.944954,125.375065 L285.222917,124.616111 Z M282.191003,131.512616 L280.675987,134.960868 L282.398024,135.71794 L283.914922,132.269687 L282.191003,131.512616 Z M279.159089,138.409121 L277.644073,141.85549 L279.367992,142.612561 L280.881126,139.166192 L279.159089,138.409121 Z M276.129057,145.303743 L275.135358,147.563657 C274.849292,148.213382 274.61216,148.751995 274.61216,148.751995 L276.334196,149.509066 L277.851094,146.060814 L276.129057,145.303743 Z M273.097144,152.198364 L272.199426,154.243587 L272.197544,154.243587 L272.129792,154.398014 C272.129792,154.399898 272.129792,154.401781 272.12791,154.403664 L272.120382,154.420613 L272.120382,154.422497 L272.095916,154.473345 C272.095916,154.477111 272.095916,154.478995 272.094034,154.482761 L272.086506,154.497827 L272.078978,154.514777 C272.078978,154.518543 272.075214,154.524193 272.07145,154.529843 L272.07145,154.531726 C272.063922,154.550559 272.056394,154.569391 272.046984,154.588224 L272.046984,154.590107 C272.045102,154.59199 272.045102,154.593874 272.041338,154.595757 L272.041338,154.601407 L272.041338,154.60329 L272.037574,154.60894 C272.03381,154.614589 272.03381,154.620239 272.030045,154.625889 C272.026281,154.631539 272.026281,154.637189 272.022517,154.640955 L272.020635,154.646605 C271.774092,155.2097 271.582128,155.646617 271.582128,155.646617 L273.304164,156.403688 L274.821062,152.955436 L273.097144,152.198364 Z M270.06523,159.09487 L269.451695,160.49225 C269.449813,160.496016 269.446049,160.501666 269.446049,160.505433 L269.442285,160.514849 C269.440403,160.514849 269.440403,160.516732 269.438521,160.518616 L269.434757,160.531798 C269.430993,160.535565 269.430993,160.537448 269.429111,160.541215 C269.016952,161.484729 268.550214,162.541239 268.550214,162.541239 L270.274133,163.300193 L271.787267,159.851941 L270.06523,159.09487 Z M267.035198,165.989491 C267.035198,165.989491 266.880873,166.341661 266.671971,166.82001 C266.670089,166.823776 266.668207,166.82566 266.668207,166.827543 L266.662561,166.836959 C266.660679,166.838842 266.660679,166.842609 266.658797,166.844492 L266.656915,166.846376 C266.656915,166.848259 266.656915,166.852025 266.655033,166.853909 L266.655033,166.855792 C266.653151,166.857675 266.653151,166.859558 266.651269,166.863325 L266.621156,166.929239 C266.621156,166.929239 266.619274,166.931122 266.619274,166.933006 L265.520182,169.435861 L267.240337,170.196698 L268.759117,166.748446 L267.035198,165.989491 Z M264.003284,172.884113 L262.488268,176.330482 L264.212187,177.09132 L265.727203,173.643068 L264.003284,172.884113 Z M260.973252,179.780618 C260.973252,179.780618 260.246798,181.436005 259.796998,182.451084 L259.793234,182.458617 L259.793234,182.464266 L259.78006,182.492515 C259.78006,182.496282 259.78006,182.496282 259.778178,182.500048 L259.749948,182.562196 L259.749948,182.564079 L259.458236,183.228871 L261.180273,183.985942 L262.693407,180.539573 L260.973252,179.780618 Z M257.941339,186.67524 C257.941339,186.67524 257.837828,186.914414 257.683504,187.262818 L257.677858,187.274117 C257.675976,187.274117 257.675976,187.277884 257.675976,187.277884 L257.651509,187.338148 L257.647745,187.341915 L256.426323,190.123493 L258.148359,190.882447 L259.665257,187.434195 L257.941339,186.67524 Z M254.911307,193.571745 L253.394409,197.018114 L255.118328,197.777069 L256.633343,194.328816 L254.911307,193.571745 Z M251.879393,200.466367 L250.364377,203.914619 L252.086414,204.671691 L253.60143,201.225321 L251.879393,200.466367 Z M248.847479,207.360989 L247.923414,209.464592 C247.917767,209.475892 247.914003,209.487191 247.908357,209.498491 L247.906475,209.502258 C247.906475,209.506024 247.904593,209.507907 247.902711,209.509791 L247.902711,209.513557 C247.595944,210.212247 247.332463,210.809241 247.332463,210.809241 L249.0545,211.566313 L250.571398,208.119943 L248.847479,207.360989 Z M245.817447,214.257494 L245.218969,215.619092 C245.217087,215.619092 245.217087,215.620975 245.217087,215.620975 L245.202031,215.654874 C245.200149,215.658641 245.198267,215.660524 245.198267,215.66429 L245.166273,215.735854 C245.166273,215.737738 245.164391,215.739621 245.164391,215.739621 L245.156863,215.758454 L245.149335,215.777286 C245.147453,215.779169 245.145571,215.781053 245.145571,215.782936 L245.138043,215.798002 C245.138043,215.798002 245.138043,215.799885 245.136161,215.801769 L245.134279,215.805535 C245.126751,215.828134 245.117341,215.850733 245.106049,215.873333 L245.106049,215.877099 C244.712709,216.771648 244.300549,217.703863 244.300549,217.703863 L246.024468,218.462818 L247.539484,215.014565 L245.817447,214.257494 Z M242.785533,221.152116 L242.237869,222.395068 L242.237869,222.396952 L242.222813,222.434617 C242.220931,222.434617 242.219049,222.438384 242.219049,222.440267 L242.215285,222.45345 C242.213403,222.455333 242.213403,222.459099 242.211521,222.460983 C241.782424,223.436512 241.270518,224.600368 241.270518,224.600368 L242.992554,225.359323 L244.50757,221.91107 L242.785533,221.152116 Z M236.595611,219.63609 L235.144584,220.833844 L237.540379,223.737834 L238.991407,222.54008 L236.595611,219.63609 Z M231.802139,213.824344 L230.351111,215.022098 L232.746906,217.927971 L234.199816,216.730217 L231.802139,213.824344 Z M227.010548,208.016364 L225.561402,209.214118 L227.955316,212.118108 L229.406343,210.920354 L227.010548,208.016364 Z M222.220839,202.204618 L220.76793,203.402372 L223.163725,206.308245 L224.616635,205.110491 L222.220839,202.204618 Z M217.427367,196.396638 L215.976339,197.592509 L218.372134,200.498382 L219.823162,199.300628 C219.823162,199.300628 218.872748,198.146188 218.168878,197.294954 L218.168878,197.293071 C218.166996,197.291187 218.165114,197.289304 218.165114,197.287421 L218.161349,197.285538 C218.161349,197.283654 218.157585,197.281771 218.157585,197.279888 L218.135001,197.251639 C218.135001,197.251639 218.133119,197.251639 218.133119,197.249756 L217.427367,196.396638 Z M212.637658,190.584892 L211.184748,191.78453 L213.582426,194.690403 L215.031571,193.490765 L212.637658,190.584892 Z M207.844185,184.775029 L206.391276,185.974667 L208.788953,188.88054 L210.239981,187.680902 L209.125832,186.330603 L209.125832,186.32872 L209.101366,186.298588 C209.099484,186.296704 209.097602,186.292938 209.093838,186.292938 L209.093838,186.291055 C209.093838,186.289171 209.091956,186.289171 209.090074,186.287288 L209.08631,186.281638 C209.08631,186.279755 209.082546,186.277872 209.082546,186.277872 L209.073136,186.266572 C209.071254,186.262806 209.069372,186.260922 209.06749,186.259039 L209.063726,186.255273 C209.063726,186.253389 209.063726,186.253389 209.061844,186.251506 L209.05808,186.24774 C209.041142,186.22514 209.024204,186.204425 209.005384,186.181825 L209.00162,186.179942 C209.00162,186.178059 208.997856,186.174292 208.997856,186.172409 L208.995974,186.172409 C208.986564,186.16111 208.979036,186.14981 208.969626,186.13851 L208.965862,186.136627 C208.393731,185.441703 207.844185,184.775029 207.844185,184.775029 L207.844185,184.775029 Z M203.052595,178.965166 L201.599685,180.164804 L203.997362,183.070677 L205.446508,181.871039 L203.052595,178.965166 Z M198.261004,173.155303 L196.809976,174.354941 L199.205772,177.258931 L200.656799,176.061176 L198.261004,173.155303 Z M193.467531,167.34544 L192.018386,168.545078 L194.412299,171.450951 L195.865209,170.251313 L193.467531,167.34544 Z M188.677823,161.535577 L187.226795,162.735215 L189.620708,165.639205 L191.073618,164.44145 L188.677823,161.535577 Z M183.88435,155.725714 L182.433322,156.925352 L184.829118,159.831225 L186.282027,158.631587 L183.88435,155.725714 Z M179.092759,149.915851 L177.641732,151.115489 L180.035645,154.019479 L181.488555,152.819841 L179.092759,149.915851 Z M174.303051,144.105988 L172.850141,145.305626 L175.247818,148.209616 L176.696964,147.011861 C176.696964,147.011861 176.450421,146.712423 176.113542,146.305638 L176.092839,146.277389 L174.303051,144.105988 Z M169.509578,138.296125 L168.056668,139.495763 L170.454346,142.399753 L171.905373,141.200115 L170.682068,139.716105 C170.678304,139.712338 170.67454,139.706688 170.670776,139.702922 L170.668894,139.701038 C170.081708,138.991049 169.509578,138.296125 169.509578,138.296125 L169.509578,138.296125 Z M164.717987,132.486262 L163.266959,133.6859 L165.662755,136.58989 L167.113782,135.392135 C167.113782,135.392135 166.142667,134.21133 165.436914,133.356329 L165.43315,133.350679 C165.431268,133.350679 165.429386,133.348796 165.429386,133.348796 L165.425622,133.343146 C165.425622,133.341263 165.42374,133.341263 165.42374,133.341263 L164.717987,132.486262 Z M159.926396,126.676399 L158.473487,127.876037 L160.871164,130.780027 L162.322192,129.580389 L159.926396,126.676399 Z M155.132924,120.866536 L153.683778,122.066174 L156.077691,124.970164 L157.528719,123.770526 L155.132924,120.866536 Z M150.343215,115.056673 L148.892187,116.254428 L151.287983,119.160301 L152.73901,117.960663 L150.343215,115.056673 Z M153.011902,109.563198 L149.524542,110.985061 L150.235941,112.728962 L153.721418,111.308982 L153.011902,109.563198 Z M159.980975,106.723239 L156.497379,108.143219 L157.206896,109.887119 L159.578225,108.921006 L159.583871,108.921006 L159.583871,108.919123 C160.199288,108.668649 160.692373,108.46714 160.692373,108.46714 L159.980975,106.723239 Z M166.953812,103.881397 L163.470216,105.30326 L164.179733,107.045277 L164.181615,107.045277 L164.181615,107.043394 L164.183497,107.043394 L164.185379,107.043394 L164.187261,107.043394 C164.187261,107.041511 164.189143,107.041511 164.191025,107.039627 L164.192907,107.039627 L164.200435,107.037744 L164.207963,107.033978 L164.211727,107.033978 L164.215491,107.032094 L164.219255,107.030211 L164.221137,107.030211 C164.223019,107.030211 164.223019,107.028328 164.223019,107.028328 L164.226783,107.026445 L164.228665,107.026445 L164.32653,106.985013 L164.330294,106.985013 L167.663329,105.625298 L166.953812,103.881397 Z M173.926649,101.039555 L170.441171,102.461418 L171.150688,104.205318 L174.636166,102.785339 L173.926649,101.039555 Z M180.897604,98.1977127 L177.412127,99.6195755 L178.121643,101.363476 L181.609003,99.9416133 L180.897604,98.1977127 Z M187.870441,95.3558705 L184.384964,96.7777333 L185.094481,98.5216338 L188.579958,97.1016543 L187.870441,95.3558705 Z M194.843279,92.5159116 L191.355919,93.9340078 L192.067318,95.6797916 L195.552795,94.2579289 L194.843279,92.5159116 Z M201.816116,89.6740694 L198.326874,91.0959321 L199.038273,92.8379494 C199.038273,92.8379494 199.115435,92.8078172 199.247176,92.7532026 L199.249058,92.7532026 C199.249058,92.7532026 199.25094,92.7513193 199.252822,92.7513193 C199.254704,92.7513193 199.256586,92.7513193 199.256586,92.7494361 L199.26035,92.7475528 C199.271642,92.7437863 199.281052,92.7400198 199.290462,92.7362532 L199.29799,92.7324867 L199.301754,92.7324867 L199.305518,92.7306035 C199.305518,92.7287202 199.305518,92.7287202 199.3074,92.7287202 L199.309282,92.7287202 C199.31681,92.7249537 199.320574,92.7230704 199.32622,92.7211871 L199.329984,92.7193039 L199.331866,92.7174206 L199.337512,92.7174206 L199.34504,92.7136541 C199.352568,92.7098876 199.360096,92.706121 199.367624,92.7042378 L199.371388,92.7023545 L199.37327,92.7023545 L199.437258,92.6759889 L199.463607,92.6665725 C199.465489,92.6646893 199.467371,92.6646893 199.469253,92.662806 L202.525633,91.4179699 L201.816116,89.6740694 Z M208.785189,86.8322272 L205.299711,88.2522067 L206.009228,89.9979904 L208.075672,89.1542891 C208.077554,89.1542891 208.079436,89.1524058 208.0832,89.1524058 L208.086964,89.1505226 C208.086964,89.1486393 208.090728,89.1486393 208.090728,89.1486393 L208.115194,89.139223 C208.851059,88.8379011 209.496588,88.5761277 209.496588,88.5761277 L208.785189,86.8322272 Z M215.758026,83.990385 L212.272549,85.4122477 L212.982065,87.1561482 C212.982065,87.1561482 213.350939,87.0054873 213.845907,86.802095 L213.849671,86.8002117 C213.857199,86.7983285 213.866609,86.7945619 213.876019,86.7926787 C213.879783,86.7907954 213.879783,86.7889122 213.883547,86.7889122 L213.885429,86.7889122 C213.894839,86.7851456 213.902367,86.7813791 213.909895,86.7776126 L213.911777,86.7776126 C213.917423,86.7738461 213.923069,86.7719628 213.928715,86.7700795 L213.930597,86.7700795 C213.934361,86.766313 213.940007,86.766313 213.945653,86.7625465 L213.951299,86.7606632 C213.953181,86.7606632 213.955063,86.75878 213.956945,86.75878 L213.970119,86.7531302 C213.972001,86.7531302 213.972001,86.7512469 213.973883,86.7512469 L213.988939,86.7437139 L213.990821,86.7437139 L213.998349,86.7399473 L214.002113,86.7399473 L214.003995,86.7380641 L214.020933,86.7324143 L214.024697,86.7286478 L214.030343,86.7286478 L214.045399,86.7211147 L214.049163,86.7211147 L214.081158,86.7079319 C214.084922,86.7079319 214.084922,86.7060486 214.088686,86.7041654 L216.467543,85.7342855 L215.758026,83.990385 Z M222.730863,81.1485428 L219.243504,82.5685222 L219.95302,84.314306 L221.816208,83.5553515 C221.819972,83.5553515 221.821854,83.5534682 221.823736,83.551585 L221.8275,83.551585 C222.653701,83.2125978 223.44038,82.8924433 223.44038,82.8924433 L222.730863,81.1485428 Z M229.701818,78.3085838 L226.216341,79.7285633 L226.925858,81.4724638 C226.925858,81.4724638 227.708773,81.1523093 228.53121,80.8189719 C228.534974,80.8170887 228.538738,80.8152054 228.54062,80.8152054 L228.542502,80.8152054 C228.546266,80.8133222 228.548148,80.8114389 228.551912,80.8114389 L228.551912,80.8095556 L228.623428,80.7813067 C228.627192,80.7794234 228.629074,80.7775402 228.632838,80.7775402 L228.646012,80.7700071 C228.649776,80.7700071 228.651658,80.7700071 228.651658,80.7681239 L228.655422,80.7662406 C228.657304,80.7662406 228.659186,80.7643573 228.66295,80.7624741 C228.666714,80.7624741 228.670478,80.7605908 228.674242,80.7587076 L228.687417,80.7530578 L228.689299,80.7530578 L228.708119,80.747408 L228.711883,80.7455247 L230.411335,80.0506011 L229.701818,78.3085838 Z M236.672774,75.4667416 L233.189178,76.8867211 L233.898695,78.6325049 L237.38229,77.2106421 L236.672774,75.4667416 Z M243.645611,72.6248994 L240.160133,74.0448789 L240.871532,75.7906627 C240.871532,75.7906627 242.252925,75.2256841 243.274855,74.8076 L243.278619,74.8076 C243.282383,74.8057167 243.284265,74.8057167 243.286147,74.8038334 L244.355128,74.3687999 L243.645611,72.6248994 Z M250.616566,69.7830572 L247.131088,71.2030367 L247.842487,72.9469372 L251.327965,71.5269577 L250.616566,69.7830572 Z M257.589403,66.941215 L254.103926,68.3611945 L254.813442,70.1069783 L258.29892,68.6851155 L257.589403,66.941215 Z M264.56224,64.1012561 L261.076763,65.5212355 L261.78628,67.2632528 C261.78628,67.2632528 262.800682,66.8508184 263.737921,66.4703995 L263.739803,66.4685163 C263.775561,66.4534502 263.811319,66.4383841 263.84896,66.4252012 L263.84896,66.423318 C263.852724,66.4214347 263.854606,66.4214347 263.856488,66.4214347 L263.865898,66.4176682 C263.865898,66.4157849 263.86778,66.4157849 263.869662,66.4157849 L265.271757,65.8432733 L264.56224,64.1012561 Z M271.535078,61.2575306 L268.047718,62.6793933 L268.757235,64.4251771 L270.285425,63.8018174 C271.222664,63.417632 272.244594,63.0033144 272.244594,63.0033144 L271.535078,61.2575306 Z M278.506033,58.4175716 L275.018673,59.8375511 L275.72819,61.5814516 C275.72819,61.5814516 277.418233,60.894061 278.445809,60.4759769 L278.455219,60.4703271 C278.458983,60.4703271 278.458983,60.4684439 278.462747,60.4665606 C278.466511,60.4665606 278.466511,60.4665606 278.470275,60.4646773 L278.474039,60.4627941 C278.477803,60.4609108 278.481567,60.4590275 278.487213,60.4571443 L278.492859,60.455261 L278.500387,60.4514945 L278.504151,60.4514945 L279.21555,60.1614722 L278.506033,58.4175716 Z M285.476988,55.5738462 L281.99151,56.9957089 L282.701027,58.7396094 L284.031606,58.19723 C285.017778,57.7960952 286.186505,57.31963 286.186505,57.31963 L285.476988,55.5738462 Z M292.449825,52.7357705 L288.962466,54.1538667 L289.673864,55.8977672 C289.673864,55.8977672 292.406539,54.7847594 293.033247,54.5305191 L293.033247,54.5305191 C293.033247,54.5286358 293.035129,54.5286358 293.037011,54.5286358 L293.040775,54.5267526 C293.040775,54.5267526 293.042657,54.5248693 293.044539,54.5248693 L293.046421,54.5248693 L293.046421,54.522986 L293.057713,54.5192195 L293.059595,54.5192195 L293.067124,54.515453 L293.070888,54.515453 L293.070888,54.5135697 C293.07277,54.5135697 293.074652,54.5135697 293.074652,54.5116865 L293.085944,54.5079199 L293.099118,54.5022702 L293.117938,54.4928538 L293.11982,54.4928538 L293.121702,54.4928538 L293.123584,54.4928538 L293.125466,54.4909706 C293.127348,54.4909706 293.12923,54.4890873 293.12923,54.4890873 L293.159342,54.4777878 L292.449825,52.7357705 Z" id="Fill-125" fill="#FEFEFE"></path>
                    <polygon id="Fill-126" fill-opacity="0.5" fill="#FEFEFE" points="293.159154 54.4783527 148.878825 113.283206 241.067073 225.058566 314.508645 58.0000525"></polygon>
                    <path d="M241.067637,225.976468 L241.067637,160.250627 C241.067637,158.789216 240.247082,157.4521 238.944733,156.794842 L154.4953,109.856422 C151.932006,108.556971 148.900092,110.408218 148.87939,113.282076 L147.876196,179.529579 C147.86687,180.958975 148.646021,182.279142 149.90132,182.960883 L235.351981,229.381405 C237.930331,230.780669 241.067637,228.914356 241.067637,225.976468" id="Fill-127" fill="#D6D8E1"></path>
                    <path d="M190.541951,177.155163 C185.77859,177.155163 181.235425,172.912174 180.394167,167.682355 C179.554792,162.448771 182.737266,158.207665 187.500627,158.207665 C192.263988,158.207665 196.807153,162.448771 197.646529,167.682355 C198.487786,172.912174 195.305311,177.155163 190.541951,177.155163 M186.698892,153.222671 C179.428697,153.222671 174.573119,159.695442 175.854766,167.682355 C177.138295,175.667386 184.07161,182.140157 191.343686,182.140157 C198.61388,182.140157 203.469459,175.667386 202.18593,167.682355 C200.906165,159.695442 193.970968,153.222671 186.698892,153.222671" id="Fill-128" fill="#FEFEFE"></path>
                </g>
            </g>
        </g>
    </g>
</svg>