<?xml version="1.0" encoding="UTF-8"?>
<svg width="699px" height="487px" viewBox="0 0 699 487" version="1.1" xmlns="http://www.w3.org/2000/svg" xmlns:xlink="http://www.w3.org/1999/xlink">
    <!-- Generator: Sketch 64 (93537) - https://sketch.com -->
    <title>Proven time tracking at scale</title>
    <desc>Created with Sketch.</desc>
    <g id="home" stroke="none" stroke-width="1" fill="none" fill-rule="evenodd">
        <g id="Tempo-homepage" transform="translate(-583.000000, -3499.000000)">
            <g id="Proven-time-tracking-at-scale" transform="translate(583.000000, 3499.000000)">
                <path d="M18.6461194,276.99 C55.4180597,396.683731 160.641642,485.771791 294.617463,486.397258 C428.593284,487.017164 585.581343,382.965821 586.166096,257.751493 C586.743134,132.537164 445.03806,148.716567 311.060149,148.093881 C177.084328,147.475373 -69.6604478,-10.4529851 18.6461194,276.99" id="Fill-1" fill="#FBFCFD"></path>
                <path d="M536.669313,339.425612 C509.904239,333.265612 317.35409,301.000836 295.392896,296.558448 C273.789015,292.189194 288.351104,276.661731 303.903642,279.407403 C329.112,283.85606 511.105731,312.497552 539.264537,319.850687 C560.218567,327.997851 550.949313,342.549493 536.669313,339.425612" id="Fill-3" fill="#DCE7EF"></path>
                <path d="M406.200806,276.051373 L440.53006,281.659731 C440.53006,281.659731 442.088866,280.851075 442.088866,293.187791 C442.088866,305.524507 440.463194,319.309284 421.063791,326.018836 C384.555134,338.64391 364.388866,311.191373 382.609761,304.151672 C399.309463,297.699134 401.695731,305.206896 405.513343,284.756448 C407.404388,274.630478 406.200806,276.051373 406.200806,276.051373" id="Fill-5" fill="#B3B5B7"></path>
                <path d="M403.084866,275.557403 L437.36606,281.157403 C437.397403,281.163672 437.426657,281.155313 437.45591,281.149045 C437.708746,281.100985 438.970836,281.416507 438.970836,292.518299 C438.970836,304.855015 437.345164,318.639791 417.945761,325.349343 C381.437104,337.974418 364.388448,311.192627 382.609343,304.152925 C399.309045,297.700388 398.579791,304.537403 402.397403,284.086955 C404.286358,273.960985 403.084866,275.557403 403.084866,275.557403" id="Fill-7" fill="#003961"></path>
                <path d="M417.946388,325.349552 C384.824896,335.053433 368.139821,316.12 377.948179,306.951045 C383.978627,307.508955 432.136537,316.418806 432.136537,316.418806 C432.136537,316.418806 424.14191,323.533731 417.946388,325.349552" id="Fill-9" fill="#004976"></path>
                <path d="M307.545104,83.4145075 L537.874358,119.551224 C547.20003,120.863463 551.713463,128.929134 551.713463,136.046149 L551.713463,295.063164 C551.713463,303.571821 543.010478,310.628239 534.602119,309.311821 L303.88003,259.453015 C297.134955,258.397791 292.161821,252.586746 292.161821,245.75809 L286.676746,99.7485373 C286.676746,89.2527164 299.383313,82.5933134 307.545104,83.4145075" id="Fill-13" fill="#003961"></path>
                <path d="M301.925254,85.9570746 L534.724358,122.80006 C541.80794,123.512597 547.201075,129.472 547.201075,136.591104 L547.201075,295.60603 C547.201075,304.114687 539.603463,310.617373 531.197194,309.303045 L298.39809,273.715881 C291.650925,272.662746 286.675701,266.849612 286.675701,260.023045 L286.675701,99.750209 C286.675701,91.5445373 293.763463,85.1358806 301.925254,85.9570746" id="Fill-15" fill="#004976"></path>
                <polygon id="Fill-17" fill="#FEFEFE" points="303.361821 102.99591 525.560627 139.993522 526.877045 288.456209 303.361821 253.533522"></polygon>
                <path d="M686.013164,195.72606 C686.013164,283.589642 567.364209,354.816209 421.003612,354.816209 C274.640925,354.816209 155.99197,283.589642 155.99197,195.72606 C155.99197,107.864567 274.640925,36.638 421.003612,36.638 C567.364209,36.638 686.013164,107.864567 686.013164,195.72606 Z" id="Stroke-19" stroke="#DCE8F2"></path>
                <path d="M551.714507,154.457403 C573.949433,168.589045 587.211821,186.415015 587.211821,205.787254 C587.211821,251.678 512.798687,288.880388 421.002567,288.880388 C329.208537,288.880388 254.791224,251.678 254.791224,205.787254 C254.791224,187.489045 266.624358,170.56994 286.675701,156.843672" id="Stroke-21" stroke="#DCE8F2"></path>
                <path d="M332.597164,134.465821 L437.379851,150.71209 C439.20403,150.996269 440.679254,152.661642 440.677166,154.435672 L440.637463,186.543731 C440.635373,188.315672 439.15597,189.525522 437.331791,189.241343 L332.551194,172.995075 C330.727015,172.712985 329.251791,171.045522 329.253878,169.271493 L329.293582,137.165522 C329.295672,135.391493 330.775075,134.183731 332.597164,134.465821" id="Fill-23" fill="#EDF2F7"></path>
                <path d="M332.54409,178.211642 L437.326776,194.45791 C439.148866,194.74209 440.626179,196.407463 440.624092,198.181493 L440.540507,265.605075 C440.538418,267.379104 439.059015,268.586866 437.236925,268.304776 L332.454239,252.058507 C330.63006,251.776418 329.154836,250.108955 329.156923,248.337015 L329.240507,180.911343 C329.242597,179.137313 330.722,177.929552 332.54409,178.211642" id="Fill-25" fill="#EDF2F7"></path>
                <path d="M448.106149,152.376 L497.607642,160.053015 C499.429731,160.335104 500.909134,162.000478 500.907047,163.774507 L500.769134,274.944955 C500.767045,276.718985 499.287642,277.926746 497.465552,277.642567 L447.96197,269.967642 C446.139881,269.685552 444.664657,268.020179 444.666744,266.246149 L444.800478,155.075701 C444.804657,153.301672 446.28197,152.09391 448.106149,152.376" id="Fill-27" fill="#EDF2F7"></path>
                <polygon id="Fill-29" fill="#DCE7EF" points="309.506149 122.858985 520.720179 155.606448 520.722269 154.001672 309.508239 121.252119"></polygon>
                <path d="M342.930836,119.210418 L357.781284,121.513104 C358.236806,121.584149 358.606657,121.99997 358.606657,122.442955 C358.606657,122.88594 358.234716,123.186836 357.779194,123.117881 L342.928746,120.815194 C342.473224,120.744149 342.103373,120.326239 342.103373,119.883254 C342.105463,119.440269 342.475313,119.139373 342.930836,119.210418" id="Fill-31" fill="#DCE7EF"></path>
                <path d="M362.732478,122.279552 L377.582925,124.584328 C378.038448,124.653284 378.408299,125.069104 378.408299,125.514179 C378.406209,125.957164 378.036358,126.25806 377.580836,126.187015 L362.730388,123.886418 C362.274866,123.813284 361.905015,123.397463 361.905015,122.954478 C361.905015,122.511493 362.276955,122.210597 362.732478,122.279552" id="Fill-33" fill="#DCE7EF"></path>
                <path d="M382.534328,125.350567 L397.384776,127.653254 C397.840299,127.724299 398.210149,128.140119 398.210149,128.583104 C398.20806,129.02609 397.838209,129.326985 397.382687,129.25803 L382.532239,126.955343 C382.076716,126.884299 381.706866,126.468478 381.706866,126.023403 C381.706866,125.580418 382.078806,125.279522 382.534328,125.350567" id="Fill-35" fill="#DCE7EF"></path>
                <path d="M402.33597,128.419493 L417.186418,130.724269 C417.64194,130.793224 418.011791,131.209045 418.00971,131.654119 C418.00971,132.097104 417.639851,132.398 417.184328,132.326955 L402.333881,130.026358 C401.876269,129.953224 401.508507,129.537403 401.508507,129.094418 C401.508507,128.651433 401.878358,128.350537 402.33597,128.419493" id="Fill-37" fill="#DCE7EF"></path>
                <path d="M425.439522,129.594866 L436.990567,131.383522 C437.44609,131.456657 437.81594,131.872478 437.81594,132.315463 L437.809672,137.129791 C437.807582,137.574866 437.437731,137.877851 436.982209,137.806806 L425.431164,136.01397 C424.975642,135.945015 424.607881,135.529194 424.609961,135.084119 L424.61206,130.267701 C424.614149,129.824716 424.984,129.523821 425.439522,129.594866" id="Fill-39" fill="#00B37E"></path>
                <path d="M332.011672,115.910806 L329.73197,115.557672 C329.73197,115.825134 329.840627,116.096776 330.032866,116.31409 C330.227194,116.533493 330.488388,116.679761 330.76003,116.723642 L331.18003,116.788418 L331.18003,117.183343 C331.18003,117.739164 331.637642,118.259463 332.20391,118.349313 L332.20809,116.134388 C332.20809,116.02991 332.120328,115.929612 332.011672,115.910806" id="Fill-41" fill="#4476BA"></path>
                <path d="M330.770896,116.922985 L328.493277,116.569851 C328.491194,117.125672 328.952985,117.64806 329.519254,117.735821 L329.939254,117.800597 L329.939254,118.195522 C329.939254,118.751343 330.396866,119.273731 330.965224,119.361493 L330.969403,117.144478 C330.969403,117.094328 330.946418,117.044179 330.908806,117.000299 C330.873284,116.960597 330.823134,116.931343 330.770896,116.922985" id="Fill-43" fill="#4476BA"></path>
                <path d="M329.532209,117.935164 L327.252507,117.58203 C327.252507,117.849493 327.361164,118.123224 327.555493,118.340537 C327.747731,118.55994 328.008925,118.704119 328.282657,118.748 L328.702657,118.812776 L328.702657,119.207701 C328.700567,119.763522 329.158179,120.28591 329.726537,120.373672 L329.728627,118.158746 C329.728627,118.052179 329.640866,117.951881 329.532209,117.935164" id="Fill-45" fill="#4476BA"></path>
                <path d="M319.929254,118.653343 C320.213433,118.697224 320.445373,118.509164 320.445373,118.231254 C320.445373,117.955433 320.215522,117.694239 319.929254,117.650358 C319.645075,117.606478 319.415224,117.794537 319.413134,118.072448 C319.413134,118.348269 319.642985,118.609463 319.929254,118.653343" id="Fill-47" fill="#475772"></path>
                <path d="M318.278507,118.398209 C318.564776,118.44209 318.794627,118.25403 318.794627,117.976119 C318.794627,117.698209 318.564776,117.439104 318.280597,117.395224 C317.994328,117.349254 317.764478,117.539403 317.764478,117.817313 C317.764478,118.093134 317.994328,118.354328 318.278507,118.398209" id="Fill-49" fill="#475772"></path>
                <path d="M316.627761,118.141194 C316.91403,118.185075 317.143881,117.999104 317.143881,117.721194 C317.14597,117.443284 316.916119,117.18209 316.629851,117.140299 C316.343582,117.094328 316.113731,117.284478 316.113731,117.560299 C316.113731,117.836119 316.343582,118.097313 316.627761,118.141194" id="Fill-51" fill="#475772"></path>
                <path d="M319.931343,117.047313 C320.215522,117.091194 320.447463,116.905224 320.447463,116.627313 C320.447463,116.349403 320.217612,116.088209 319.931343,116.046418 C319.647164,116.000448 319.415224,116.190597 319.415224,116.466418 C319.415224,116.742239 319.645075,117.003433 319.931343,117.047313" id="Fill-53" fill="#475772"></path>
                <path d="M318.280597,116.792388 C318.566866,116.836269 318.796716,116.648209 318.796716,116.370299 C318.796716,116.094478 318.566866,115.833284 318.282687,115.789403 C317.996418,115.745522 317.766567,115.933582 317.766567,116.211493 C317.764478,116.487313 317.996418,116.748507 318.280597,116.792388" id="Fill-55" fill="#475772"></path>
                <path d="M316.629642,116.537254 C316.91591,116.581134 317.145761,116.393075 317.145761,116.115164 C317.147851,115.837254 316.918,115.578149 316.631731,115.534269 C316.345463,115.488299 316.115612,115.678448 316.115612,115.956358 C316.115612,116.232179 316.345463,116.493373 316.629642,116.537254" id="Fill-57" fill="#475772"></path>
                <path d="M319.933433,115.443582 C320.217612,115.487463 320.449552,115.299403 320.449552,115.021493 C320.449552,114.743582 320.219701,114.484478 319.933433,114.440597 C319.649254,114.394627 319.417313,114.584776 319.417313,114.862687 C319.417313,115.138507 319.647164,115.399701 319.933433,115.443582" id="Fill-59" fill="#475772"></path>
                <path d="M318.282687,115.186358 C318.568955,115.230239 318.798806,115.042179 318.798806,114.766358 C318.798806,114.488448 318.568955,114.227254 318.284776,114.185463 C317.998507,114.139493 317.768657,114.329642 317.768657,114.605463 C317.766567,114.881284 317.996418,115.142478 318.282687,115.186358" id="Fill-61" fill="#475772"></path>
                <path d="M316.631731,114.931433 C316.918,114.975313 317.147851,114.787254 317.147851,114.509343 C317.14994,114.233522 316.92009,113.972328 316.633821,113.928448 C316.347552,113.884567 316.117701,114.072627 316.117701,114.350537 C316.117701,114.626358 316.347552,114.887552 316.631731,114.931433" id="Fill-63" fill="#475772"></path>
                <path d="M348.062776,192.954896 C348.058597,196.222955 345.333821,198.452507 341.98009,197.932209 C341.894418,197.919672 341.810836,197.902955 341.727254,197.886239 L341.142179,196.812209 C341.41591,196.897881 341.69591,196.962657 341.98009,197.006537 C344.811433,197.445343 347.10994,195.566836 347.11203,192.808627 C347.114119,192.388627 347.061881,191.972806 346.961582,191.567433 L347.594716,190.597881 C347.897701,191.34594 348.062776,192.144149 348.062776,192.954896" id="Fill-65" fill="#F79A46"></path>
                <path d="M336.849821,191.218269 C336.847731,193.523045 338.454597,195.710806 340.63609,196.621851 L341.260866,197.775284 C338.239373,196.962448 335.896985,194.101851 335.901159,191.072 C335.901159,189.916478 336.243851,188.892597 336.831015,188.073493 L337.999075,188.255284 C337.282358,188.999164 336.85191,190.027224 336.849821,191.218269" id="Fill-67" fill="#0AC2F0"></path>
                <path d="M341.98803,186.098448 C344.351313,186.466209 346.394896,188.087701 347.39997,190.152179 L346.810716,191.052776 C346.098179,189.02591 344.207134,187.364716 341.98803,187.01994 C340.560866,186.800537 339.271612,187.164119 338.341761,187.930985 L337.092209,187.736657 C338.201761,186.455761 339.98206,185.789194 341.98803,186.098448" id="Fill-69" fill="#00B37E"></path>
                <path d="M341.126925,194.167045 L339.110507,191.895701 C339.074985,191.856 339.074985,191.795403 339.110507,191.766149 L340.052896,190.997194 C340.092597,190.97003 340.151104,190.978388 340.188716,191.020179 L341.195881,192.154806 L343.824537,190.017194 C343.862149,189.985851 343.922746,189.996299 343.958269,190.036 L344.900657,191.097493 C344.938269,191.139284 344.938269,191.197791 344.900657,191.229134 L341.260657,194.18794 C341.225134,194.217194 341.164537,194.210925 341.126925,194.167045" id="Fill-71" fill="#064975"></path>
                <path d="M356.87609,188.408448 L432.367433,200.114119 C433.278478,200.254119 434.018179,201.085761 434.016094,201.973821 L434.003552,211.606657 C434.003552,212.492627 433.263851,213.096507 432.352806,212.954418 L356.859373,201.250836 C355.948328,201.108746 355.210716,200.277104 355.210716,199.389045 L355.223254,189.758299 C355.225343,188.870239 355.962955,188.266358 356.87609,188.408448" id="Fill-73" fill="#FEFEFE"></path>
                <path d="M356.855612,204.461642 L432.349045,216.167313 C433.258,216.307313 433.997701,217.141045 433.997701,218.027015 L433.985164,227.659851 C433.983075,228.545821 433.245463,229.149701 432.332328,229.009701 L356.838896,217.30403 C355.92994,217.16194 355.190239,216.330299 355.192324,215.442239 L355.202776,205.811493 C355.204866,204.925522 355.942478,204.319552 356.855612,204.461642" id="Fill-75" fill="#FEFEFE"></path>
                <path d="M356.835134,220.514836 L432.328567,232.220507 C433.239612,232.360507 433.979313,233.194239 433.977228,234.080209 L433.964687,243.713045 C433.964687,244.599015 433.224985,245.202896 432.31394,245.062896 L356.820507,233.357224 C355.909463,233.215134 355.171851,232.383493 355.171851,231.495433 L355.184388,221.864687 C355.184388,220.978716 355.92409,220.374836 356.835134,220.514836" id="Fill-77" fill="#FEFEFE"></path>
                <path d="M356.816955,236.568239 L432.310388,248.27391 C433.219343,248.41391 433.959045,249.247642 433.95696,250.133612 L433.946507,259.768537 C433.944418,260.652418 433.206806,261.256299 432.293672,261.116299 L356.800239,249.410627 C355.891284,249.268537 355.151582,248.436896 355.151582,247.550925 L355.164119,237.91809 C355.166209,237.032119 355.903821,236.428239 356.816955,236.568239" id="Fill-79" fill="#FEFEFE"></path>
                <path d="M397.30809,0.522179104 L548.261522,0.522179104 C550.455552,0.522179104 552.235851,2.31919403 552.235851,4.53620896 L552.235851,68.739791 C552.235851,70.956806 550.455552,72.7517313 548.261522,72.7517313 L397.30809,72.7517313 C395.11406,72.7517313 393.33794,70.956806 393.33794,68.739791 L393.33794,4.53620896 C393.33794,2.31919403 395.11406,0.522179104 397.30809,0.522179104" id="Fill-81" fill="#FEFEFE"></path>
                <path d="M397.30809,0.522179104 L548.261522,0.522179104 C550.455552,0.522179104 552.235851,2.31919403 552.235851,4.53620896 L552.235851,68.739791 C552.235851,70.956806 550.455552,72.7517313 548.261522,72.7517313 L397.30809,72.7517313 C395.11406,72.7517313 393.33794,70.956806 393.33794,68.739791 L393.33794,4.53620896 C393.33794,2.31919403 395.11406,0.522179104 397.30809,0.522179104 Z" id="Stroke-83" stroke="#DCE7EF" stroke-width="0.5"></path>
                <path d="M407.239522,48.6757015 L419.156239,48.6757015 C420.255343,48.6757015 421.143403,49.574209 421.143403,50.6816716 L421.143403,62.7216716 C421.143403,63.8291343 420.255343,64.7276418 419.156239,64.7276418 L407.239522,64.7276418 C406.144597,64.7276418 405.254448,63.8291343 405.254448,62.7216716 L405.254448,50.6816716 C405.254448,49.574209 406.144597,48.6757015 407.239522,48.6757015" id="Fill-85" fill="#20B57C"></path>
                <polyline id="Stroke-87" stroke="#FEFEFE" stroke-width="0.5" stroke-linecap="round" stroke-linejoin="round" points="409.227104 57.7052836 411.212179 59.7112537 417.171582 53.6912537"></polyline>
                <path d="M407.239522,36.6384179 L522.440716,36.6384179 C523.537731,36.6384179 524.427881,37.5369254 524.427881,38.6443881 C524.427881,39.7518507 523.537731,40.6503582 522.440716,40.6503582 L407.239522,40.6503582 C406.144597,40.6503582 405.254448,39.7518507 405.254448,38.6443881 C405.254448,37.5369254 406.144597,36.6384179 407.239522,36.6384179" id="Fill-89" fill="#BBD7DF"></path>
                <path d="M407.239522,24.5990448 L522.440716,24.5990448 C523.537731,24.5990448 524.427881,25.4975522 524.427881,26.6050149 C524.427881,27.7124776 523.537731,28.6130746 522.440716,28.6130746 L407.239522,28.6130746 C406.144597,28.6130746 405.254448,27.7124776 405.254448,26.6050149 C405.254448,25.4975522 406.144597,24.5990448 407.239522,24.5990448" id="Fill-91" fill="#BBD7DF"></path>
                <path d="M407.239522,12.5615522 L538.329672,12.5615522 C539.428776,12.5615522 540.318925,13.4600597 540.318925,14.5675224 C540.318925,15.6749851 539.428776,16.5734925 538.329672,16.5734925 L407.239522,16.5734925 C406.144597,16.5734925 405.254448,15.6749851 405.254448,14.5675224 C405.254448,13.4600597 406.144597,12.5615522 407.239522,12.5615522" id="Fill-93" fill="#BBD7DF"></path>
                <path d="M396.142955,362.761522 C396.142955,359.326299 395.865045,356.820925 395.261164,354.221522 L356.048627,354.221522 L356.048627,369.721821 L379.065045,369.721821 C378.601164,373.574955 376.093701,379.375552 370.525045,383.272567 L370.447731,383.790776 L382.847134,393.396448 L383.70594,393.482119 C391.594,386.19794 396.142955,375.476448 396.142955,362.761522" id="Fill-95" fill="#557DBE"></path>
                <path d="M356.047582,403.599731 C367.322806,403.599731 376.790567,399.888687 383.704896,393.482119 L370.52609,383.272567 C366.998925,385.73197 362.26609,387.449582 356.047582,387.449582 C345.002209,387.449582 335.628478,380.163313 332.285194,370.093761 L331.796239,370.133463 L318.903701,380.113164 L318.736537,380.581224 C325.602806,394.226 339.711463,403.599731 356.047582,403.599731" id="Fill-97" fill="#35A751"></path>
                <path d="M332.284985,370.093343 C331.403194,367.49603 330.893343,364.710657 330.893343,361.833343 C330.893343,358.95603 331.403194,356.170657 332.241104,353.573343 L332.21603,353.017522 L319.162597,342.881104 L318.736328,343.083791 C315.902896,348.744388 314.279313,355.102896 314.279313,361.833343 C314.279313,368.563791 315.902896,374.920209 318.736328,380.582896 L332.284985,370.093343" id="Fill-99" fill="#F8BB15"></path>
                <path d="M356.047582,336.215642 C363.889672,336.215642 369.180418,339.602806 372.197731,342.434149 L383.984896,330.924896 C376.744597,324.196537 367.322806,320.065493 356.047582,320.065493 C339.711463,320.065493 325.602806,329.439224 318.736537,343.084 L332.239224,353.573552 C335.628478,343.50191 345.002209,336.215642 356.047582,336.215642" id="Fill-101" fill="#EA4435"></path>
                <polygon id="Fill-103" fill="#E74024" points="624.597881 260.102239 624.597881 205.957761 672.494597 188.257164 698.52206 196.58403 698.52206 269.469701 672.494597 277.320149 624.597881 260.102239 672.494597 265.867313 672.494597 202.83597 641.257881 210.124328 641.257881 252.81597"></polygon>
                <path d="M191.158716,292.361582 C160.640806,267.575313 135.783493,286.732328 140.470358,239.552328 C146.400507,179.828746 130.877224,199.738 114.089761,202.845164 C97.300209,205.954418 91.0817015,207.820388 80.5127463,231.451134 C69.9396119,255.077701 52.5294627,293.62994 62.4799104,361.406657 C62.762,363.316507 63.0315522,365.184567 63.2990149,367.029642 C98.541403,415.862478 147.894537,453.328149 206.550358,472.403672 C204.872448,451.230239 202.649164,422.43203 205.578716,406.384269 C210.572746,379.044567 224.240507,377.669642 225.022,360.470537 C226.215134,334.22994 224.698119,319.596806 191.158716,292.361582" id="Fill-105" fill="#FCE7EC"></path>
                <path d="M203.773552,170.947313 C203.773552,170.947313 219.514149,193.650299 219.324,197.93597 C219.133851,202.221642 204.160119,208.410896 204.160119,208.410896" id="Fill-107" fill="#F3C481"></path>
                <path d="M214.692716,187.541284 C216.399881,197.243075 215.720776,206.173821 216.293313,215.104567 C217.590925,235.429642 201.800179,268.371433 166.409433,255.97203 C155.456,252.133522 158.824358,267.876209 146.748836,270.003373 C97.356,278.70009 90.5795821,250.206955 83.6318209,210.756209 C76.6861493,171.303373 100.883164,134.071731 137.680179,127.594119 C165.276896,122.733821 192.551821,120.807254 207.178687,144.665761 C212.055701,152.618597 212.956299,177.676507 214.692716,187.541284" id="Fill-109" fill="#F3C481"></path>
                <line x1="165.194358" y1="191.787672" x2="217.826" y2="190.088866" id="Stroke-111" stroke="#064975"></line>
                <path d="M212.876478,189.269552 C211.273791,198.954627 211.087821,206.986866 212.454388,207.212537 C213.820955,207.438209 216.228119,199.771642 217.826627,190.088657 C219.427224,180.403582 219.617373,172.371343 218.248716,172.145672 C216.882149,171.91791 214.477075,179.584478 212.876478,189.269552 Z" id="Stroke-113" stroke="#064975"></path>
                <path d="M197.055851,178.262627 C198.798537,175.351881 199.022119,177.614866 199.022119,177.614866" id="Stroke-115" stroke="#064975"></path>
                <path d="M216.408657,157.803821 C205.810448,112.834567 196.532836,110.761731 144.856119,105.575463 C93.179403,100.385015 62.8516418,160.133672 58.2922388,202.121134 C56.4262687,219.328597 41.8913433,329.602627 54.9008955,354.221731 C63.7355224,370.938149 92.1137313,415.823821 123.860299,429.148896 C111.928955,333.595761 171.209552,361.731582 192.410149,278.036657 C202.851642,236.809791 187.054627,219.188597 189.516119,206.231284 C191.344478,196.610985 204.406269,200.443224 203.938209,197.160537 C202.899701,189.845015 203.752239,184.710985 203.967463,179.110985 C211.462687,174.169194 206.589851,160.27994 216.408657,157.803821" id="Fill-117" fill="#400626"></path>
                <path d="M171.048657,371.556448 C171.048657,371.556448 170.415522,374.931075 171.119701,380.303313 C171.353731,382.09406 158.277313,373.92391 158.881194,376.105403 C159.340896,377.772866 173.391045,389.718836 174.141194,391.559731 C175.13791,394.002418 176.416716,396.578836 178.057015,399.234657 C188.270746,415.796448 207.751642,483.514657 205.735224,461.831373 C203.716716,440.14809 207.787164,397.364507 207.787164,397.364507" id="Fill-119" fill="#EED0D8"></path>
                <path d="M171.20997,347.918388 C175.59803,362.881672 188.488478,447.539881 197.055642,469.120776 C211.053552,474.23391 225.615642,478.296 240.675045,481.183761 C239.705493,439.089731 227.268478,349.032119 219.486985,327.714507 C203.568776,339.311522 183.71594,345.024358 171.20997,347.918388" id="Fill-121" fill="#F3C481"></path>
                <path d="M219.48594,327.714716 C219.81609,328.707254 230.792507,388.042179 230.792507,388.042179 C230.792507,388.042179 238.640866,355.165164 229.018478,338.421582 C227.587134,335.930836 224.824746,332.090239 221.471015,327.714716 C220.676985,326.682478 220.470119,327.714716 219.48594,327.714716" id="Fill-123" fill="#EED0D8"></path>
            </g>
        </g>
    </g>
</svg>